<?xml version="1.0" encoding="UTF-8" standalone="no"?><!DOCTYPE svg PUBLIC "-//W3C//DTD SVG 1.1//EN" "http://www.w3.org/Graphics/SVG/1.1/DTD/svg11.dtd"><svg width="100%" height="100%" viewBox="0 0 334 334" version="1.1" xmlns="http://www.w3.org/2000/svg" xmlns:xlink="http://www.w3.org/1999/xlink" xml:space="preserve" xmlns:serif="http://www.serif.com/" style="fill-rule:evenodd;clip-rule:evenodd;stroke-linejoin:round;stroke-miterlimit:2;"><path d="M226.417,137.679c-48.139,-0 -48.201,47.957 -48.201,48.204c-0,-0 -3.298,48.017 48.201,48.017c0,0 42.949,2.443 42.949,-33.417l-22.054,-0c0,-0 0.731,13.5 -20.161,13.5c0,-0 -22.053,1.467 -22.053,-21.81l65.002,-0c-0,-0 7.148,-54.494 -43.683,-54.494Zm-21.566,37.693c-0,-0 2.689,-19.306 22.057,-19.306c19.427,0 19.121,19.306 19.121,19.306l-41.178,-0Zm-55.1,-12.339c-0,0 19.121,-1.405 19.121,-23.887c0,-22.419 -15.639,-33.417 -35.494,-33.417l-65.312,-0l0,125.542l65.306,-0c-0,-0 39.894,1.224 39.894,-37.081c0.003,0 1.714,-31.157 -23.515,-31.157Zm-52.908,-35.007l36.532,-0c-0,-0 8.859,-0 8.859,13.072c0,13.073 -5.193,14.968 -11.12,14.968l-34.271,0l0,-28.04Zm34.702,80.948l-34.702,-0l0,-33.602l36.532,-0c-0,-0 13.259,-0.122 13.197,17.288c-0,14.665 -9.834,16.192 -15.027,16.314Zm67.869,-95.854l-0,15.459l51.808,-0l0,-15.459l-51.808,0Z" style="fill:#fff;fill-rule:nonzero;"/></svg>