<?xml version="1.0" encoding="UTF-8" standalone="no"?><!DOCTYPE svg PUBLIC "-//W3C//DTD SVG 1.1//EN" "http://www.w3.org/Graphics/SVG/1.1/DTD/svg11.dtd"><svg width="100%" height="100%" viewBox="0 0 1250 1250" version="1.1" xmlns="http://www.w3.org/2000/svg" xmlns:xlink="http://www.w3.org/1999/xlink" xml:space="preserve" xmlns:serif="http://www.serif.com/" style="fill-rule:evenodd;clip-rule:evenodd;stroke-linejoin:round;stroke-miterlimit:2;"><path d="M1041.67,366.558c-30.659,13.6 -63.613,22.788 -98.192,26.921c35.296,-21.158 62.408,-54.662 75.171,-94.587c-33.038,19.596 -69.625,33.821 -108.571,41.487c-31.183,-33.229 -75.617,-53.987 -124.792,-53.987c-94.416,-0 -170.97,76.546 -170.97,170.962c-0,13.4 1.512,26.45 4.425,38.963c-142.092,-7.129 -268.067,-75.196 -352.392,-178.634c-14.717,25.25 -23.15,54.617 -23.15,85.95c-0,59.317 30.183,111.646 76.058,142.305c-28.025,-0.888 -54.387,-8.58 -77.437,-21.384c-0.017,0.713 -0.017,1.429 -0.017,2.15c0,82.834 58.933,151.933 137.146,167.642c-14.346,3.908 -29.45,5.996 -45.042,5.996c-11.016,-0 -21.725,-1.075 -32.166,-3.067c21.758,67.921 84.895,117.354 159.712,118.729c-58.512,45.859 -132.229,73.188 -212.333,73.188c-13.8,-0 -27.409,-0.809 -40.784,-2.392c75.663,48.513 165.53,76.821 262.08,76.821c314.47,-0 486.441,-260.517 486.441,-486.446c0,-7.412 -0.166,-14.783 -0.496,-22.121c33.405,-24.1 62.388,-54.212 85.309,-88.496Z" style="fill:#fff;fill-rule:nonzero;"/></svg>